<mxfile host="Electron" modified="2023-08-04T13:56:52.757Z" agent="Mozilla/5.0 (Macintosh; Intel Mac OS X 10_15_7) AppleWebKit/537.36 (KHTML, like Gecko) draw.io/21.6.5 Chrome/114.0.5735.243 Electron/25.3.1 Safari/537.36" etag="9t6iRJyjM49luyhikKP5" version="21.6.5" type="device">
  <diagram name="Page-1" id="vyqxLwW7QJTfSOO5Ivzo">
    <mxGraphModel dx="1550" dy="-120" grid="0" gridSize="10" guides="1" tooltips="1" connect="1" arrows="1" fold="1" page="0" pageScale="1" pageWidth="827" pageHeight="1169" math="0" shadow="0">
      <root>
        <mxCell id="0" />
        <mxCell id="1" parent="0" />
        <mxCell id="MiMByvfmSS1hJjPA0xld-52" value="" style="rounded=1;whiteSpace=wrap;html=1;fontSize=14;fillColor=#f0f6ff;fontColor=#333333;strokeColor=#FFFFFF;align=left;labelPosition=right;verticalLabelPosition=middle;verticalAlign=middle;" vertex="1" parent="1">
          <mxGeometry x="464" y="1636" width="1739" height="722" as="geometry" />
        </mxCell>
        <mxCell id="Pu00R0AXdo9YrrrDTK1f-9" value="" style="edgeStyle=orthogonalEdgeStyle;rounded=1;orthogonalLoop=1;jettySize=auto;html=1;strokeColor=#666666;" parent="1" target="-tr_Jl8yfyVWpY2dG3ru-135" edge="1">
          <mxGeometry relative="1" as="geometry">
            <mxPoint x="1596" y="2037.5" as="sourcePoint" />
          </mxGeometry>
        </mxCell>
        <mxCell id="Pu00R0AXdo9YrrrDTK1f-10" value="" style="edgeStyle=orthogonalEdgeStyle;rounded=1;orthogonalLoop=1;jettySize=auto;html=1;strokeColor=#666666;" parent="1" target="-tr_Jl8yfyVWpY2dG3ru-218" edge="1">
          <mxGeometry relative="1" as="geometry">
            <mxPoint x="1596" y="2156" as="sourcePoint" />
          </mxGeometry>
        </mxCell>
        <mxCell id="xWwAX8yrmCoNilL9z8sZ-58" style="edgeStyle=orthogonalEdgeStyle;rounded=1;orthogonalLoop=1;jettySize=auto;html=1;strokeColor=#666666;" parent="1" source="-tr_Jl8yfyVWpY2dG3ru-173" edge="1">
          <mxGeometry relative="1" as="geometry">
            <mxPoint x="2080" y="1868" as="targetPoint" />
          </mxGeometry>
        </mxCell>
        <mxCell id="-tr_Jl8yfyVWpY2dG3ru-173" value="&lt;div style=&quot;font-size: 12px;&quot;&gt;&lt;font style=&quot;background-color: initial; font-size: 12px;&quot;&gt;set Webhooks&#39; caBundle&amp;nbsp;&amp;nbsp;&lt;/font&gt;&lt;font style=&quot;background-color: initial;&quot;&gt;to cert from&amp;nbsp;&lt;/font&gt;&lt;span style=&quot;background-color: initial; border-color: var(--border-color);&quot;&gt;ca-server-cert&amp;nbsp;&lt;/span&gt;&lt;span style=&quot;background-color: initial; border-color: var(--border-color);&quot;&gt;Secret&lt;/span&gt;&lt;/div&gt;" style="rounded=1;whiteSpace=wrap;html=1;fontSize=14;align=center;strokeColor=#666666;" parent="1" vertex="1">
          <mxGeometry x="525" y="2244" width="1413" height="71" as="geometry" />
        </mxCell>
        <mxCell id="MiMByvfmSS1hJjPA0xld-50" value="" style="edgeStyle=orthogonalEdgeStyle;rounded=1;orthogonalLoop=1;jettySize=auto;html=1;strokeColor=#666666;" edge="1" parent="1" source="-tr_Jl8yfyVWpY2dG3ru-174" target="-tr_Jl8yfyVWpY2dG3ru-173">
          <mxGeometry relative="1" as="geometry">
            <Array as="points">
              <mxPoint x="1343" y="2226" />
              <mxPoint x="1343" y="2226" />
            </Array>
          </mxGeometry>
        </mxCell>
        <mxCell id="-tr_Jl8yfyVWpY2dG3ru-174" value="&lt;font style=&quot;font-size: 12px;&quot;&gt;create&amp;nbsp;&lt;span style=&quot;border-color: var(--border-color);&quot;&gt;webhook-server-cert Secret&lt;/span&gt;&lt;/font&gt;" style="rounded=1;whiteSpace=wrap;html=1;fontSize=14;strokeColor=#666666;" parent="1" vertex="1">
          <mxGeometry x="525" y="2118" width="1413" height="68" as="geometry" />
        </mxCell>
        <mxCell id="MiMByvfmSS1hJjPA0xld-48" value="" style="edgeStyle=orthogonalEdgeStyle;rounded=1;orthogonalLoop=1;jettySize=auto;html=1;strokeColor=#666666;" edge="1" parent="1" source="-tr_Jl8yfyVWpY2dG3ru-175" target="-tr_Jl8yfyVWpY2dG3ru-174">
          <mxGeometry relative="1" as="geometry">
            <Array as="points">
              <mxPoint x="592" y="2080" />
              <mxPoint x="592" y="2080" />
            </Array>
          </mxGeometry>
        </mxCell>
        <mxCell id="-tr_Jl8yfyVWpY2dG3ru-175" value="&lt;font style=&quot;font-size: 12px;&quot;&gt;create&amp;nbsp;&lt;span style=&quot;border-color: var(--border-color);&quot;&gt;ca-server-cert&lt;/span&gt;&lt;/font&gt;" style="rounded=1;whiteSpace=wrap;html=1;fontSize=14;strokeColor=#666666;" parent="1" vertex="1">
          <mxGeometry x="523" y="1986" width="138" height="60" as="geometry" />
        </mxCell>
        <mxCell id="rAdUN6T4OuiU2hSwLSGW-6" value="" style="edgeStyle=orthogonalEdgeStyle;rounded=1;orthogonalLoop=1;jettySize=auto;html=1;strokeColor=#666666;" parent="1" source="-tr_Jl8yfyVWpY2dG3ru-207" edge="1">
          <mxGeometry relative="1" as="geometry">
            <Array as="points">
              <mxPoint x="1093" y="1618" />
              <mxPoint x="1093" y="1618" />
            </Array>
            <mxPoint x="1093" y="1636" as="targetPoint" />
          </mxGeometry>
        </mxCell>
        <mxCell id="-tr_Jl8yfyVWpY2dG3ru-207" value="&lt;span style=&quot;font-size: 12px;&quot;&gt;CR edit&lt;/span&gt;" style="ellipse;whiteSpace=wrap;html=1;aspect=fixed;labelBackgroundColor=none;fontSize=10;fillColor=#FFFFFF;strokeColor=#666666;" parent="1" vertex="1">
          <mxGeometry x="1028" y="1432" width="130" height="130" as="geometry" />
        </mxCell>
        <mxCell id="xWwAX8yrmCoNilL9z8sZ-62" style="edgeStyle=orthogonalEdgeStyle;rounded=1;orthogonalLoop=1;jettySize=auto;html=1;strokeColor=#666666;" parent="1" source="-tr_Jl8yfyVWpY2dG3ru-218" edge="1">
          <mxGeometry relative="1" as="geometry">
            <mxPoint x="1595.5" y="2312.5" as="targetPoint" />
          </mxGeometry>
        </mxCell>
        <mxCell id="xWwAX8yrmCoNilL9z8sZ-61" style="edgeStyle=orthogonalEdgeStyle;rounded=1;orthogonalLoop=1;jettySize=auto;html=1;strokeColor=#666666;" parent="1" source="-tr_Jl8yfyVWpY2dG3ru-219" edge="1">
          <mxGeometry relative="1" as="geometry">
            <mxPoint x="1344.5" y="2309" as="targetPoint" />
          </mxGeometry>
        </mxCell>
        <mxCell id="Pu00R0AXdo9YrrrDTK1f-7" value="" style="edgeStyle=orthogonalEdgeStyle;rounded=1;orthogonalLoop=1;jettySize=auto;html=1;strokeColor=#666666;" parent="1" target="-tr_Jl8yfyVWpY2dG3ru-222" edge="1">
          <mxGeometry relative="1" as="geometry">
            <mxPoint x="1344.5" y="2042" as="sourcePoint" />
          </mxGeometry>
        </mxCell>
        <mxCell id="Pu00R0AXdo9YrrrDTK1f-8" value="" style="edgeStyle=orthogonalEdgeStyle;rounded=1;orthogonalLoop=1;jettySize=auto;html=1;strokeColor=#666666;" parent="1" source="-tr_Jl8yfyVWpY2dG3ru-222" edge="1">
          <mxGeometry relative="1" as="geometry">
            <mxPoint x="1344.5" y="2203" as="targetPoint" />
          </mxGeometry>
        </mxCell>
        <mxCell id="rAdUN6T4OuiU2hSwLSGW-3" value="" style="edgeStyle=orthogonalEdgeStyle;rounded=1;orthogonalLoop=1;jettySize=auto;html=1;strokeColor=#666666;" parent="1" source="D-mSAHQnKh3Qnr3-uecS-1" edge="1">
          <mxGeometry relative="1" as="geometry">
            <Array as="points">
              <mxPoint x="1405" y="1628" />
              <mxPoint x="1405" y="1628" />
            </Array>
            <mxPoint x="1405" y="1636" as="targetPoint" />
          </mxGeometry>
        </mxCell>
        <mxCell id="D-mSAHQnKh3Qnr3-uecS-1" value="&lt;span style=&quot;border-color: var(--border-color); font-size: 12px;&quot;&gt;&lt;font style=&quot;border-color: var(--border-color); font-size: 12px;&quot;&gt;watchers&lt;/font&gt;&lt;/span&gt;" style="ellipse;whiteSpace=wrap;html=1;aspect=fixed;labelBackgroundColor=none;fontSize=10;fillColor=#FFFFFF;strokeColor=#666666;" parent="1" vertex="1">
          <mxGeometry x="1340" y="1432" width="130" height="130" as="geometry" />
        </mxCell>
        <mxCell id="rAdUN6T4OuiU2hSwLSGW-2" value="" style="edgeStyle=orthogonalEdgeStyle;rounded=1;orthogonalLoop=1;jettySize=auto;html=1;strokeColor=#666666;" parent="1" source="D-mSAHQnKh3Qnr3-uecS-2" target="xWwAX8yrmCoNilL9z8sZ-99" edge="1">
          <mxGeometry relative="1" as="geometry" />
        </mxCell>
        <mxCell id="D-mSAHQnKh3Qnr3-uecS-2" value="&lt;span style=&quot;border-color: var(--border-color); font-size: 12px;&quot;&gt;scheduled execution&lt;br&gt;&lt;/span&gt;" style="ellipse;whiteSpace=wrap;html=1;aspect=fixed;labelBackgroundColor=none;fontSize=10;fillColor=#FFFFFF;strokeColor=#666666;" parent="1" vertex="1">
          <mxGeometry x="1182" y="1434" width="130" height="130" as="geometry" />
        </mxCell>
        <mxCell id="xWwAX8yrmCoNilL9z8sZ-66" style="edgeStyle=orthogonalEdgeStyle;rounded=1;orthogonalLoop=1;jettySize=auto;html=1;entryX=0.5;entryY=0;entryDx=0;entryDy=0;strokeColor=#666666;" parent="1" source="D-mSAHQnKh3Qnr3-uecS-10" edge="1">
          <mxGeometry relative="1" as="geometry">
            <mxPoint x="1094" y="1985" as="targetPoint" />
          </mxGeometry>
        </mxCell>
        <mxCell id="xWwAX8yrmCoNilL9z8sZ-113" value="&lt;font style=&quot;font-size: 12px;&quot;&gt;yes&lt;/font&gt;" style="edgeLabel;html=1;align=left;verticalAlign=middle;resizable=0;points=[];fontSize=12;fontColor=#000000;labelPosition=right;verticalLabelPosition=middle;" parent="xWwAX8yrmCoNilL9z8sZ-66" vertex="1" connectable="0">
          <mxGeometry x="-0.1429" y="1" relative="1" as="geometry">
            <mxPoint as="offset" />
          </mxGeometry>
        </mxCell>
        <mxCell id="D-mSAHQnKh3Qnr3-uecS-10" value="&lt;font style=&quot;font-size: 12px;&quot;&gt;current &lt;font style=&quot;font-size: 12px;&quot;&gt;webhook caBundle&lt;/font&gt;&amp;nbsp;differrent from&lt;br&gt;ca-&lt;font style=&quot;font-size: 12px;&quot;&gt;server-cert Secret&lt;/font&gt;?&lt;br&gt;&lt;br&gt;&lt;/font&gt;" style="rhombus;whiteSpace=wrap;html=1;labelBackgroundColor=none;fontSize=13;strokeColor=#666666;" parent="1" vertex="1">
          <mxGeometry x="1014" y="1727" width="160" height="160" as="geometry" />
        </mxCell>
        <mxCell id="xWwAX8yrmCoNilL9z8sZ-68" style="edgeStyle=orthogonalEdgeStyle;rounded=1;orthogonalLoop=1;jettySize=auto;html=1;entryX=0.5;entryY=0;entryDx=0;entryDy=0;strokeColor=#666666;" parent="1" source="D-mSAHQnKh3Qnr3-uecS-11" edge="1">
          <mxGeometry relative="1" as="geometry">
            <mxPoint x="1344.5" y="1983" as="targetPoint" />
          </mxGeometry>
        </mxCell>
        <mxCell id="xWwAX8yrmCoNilL9z8sZ-116" value="&lt;font style=&quot;font-size: 12px;&quot;&gt;no&lt;/font&gt;" style="edgeLabel;html=1;align=left;verticalAlign=middle;resizable=0;points=[];fontSize=12;fontColor=#000000;labelPosition=right;verticalLabelPosition=middle;" parent="xWwAX8yrmCoNilL9z8sZ-68" vertex="1" connectable="0">
          <mxGeometry x="-0.0863" relative="1" as="geometry">
            <mxPoint as="offset" />
          </mxGeometry>
        </mxCell>
        <mxCell id="D-mSAHQnKh3Qnr3-uecS-11" value="&lt;font style=&quot;font-size: 12px;&quot;&gt;&lt;span style=&quot;border-color: var(--border-color);&quot;&gt;&amp;nbsp;&lt;font style=&quot;border-color: var(--border-color); font-size: 12px;&quot;&gt;webhook-server-cert&lt;/font&gt;&amp;nbsp;&lt;br&gt;&amp;nbsp;signed &lt;br&gt;by ca-server-cert ?&lt;/span&gt;&lt;br&gt;&lt;/font&gt;" style="rhombus;whiteSpace=wrap;html=1;labelBackgroundColor=none;fontSize=13;strokeColor=#666666;" parent="1" vertex="1">
          <mxGeometry x="1265" y="1725" width="160" height="160" as="geometry" />
        </mxCell>
        <mxCell id="xWwAX8yrmCoNilL9z8sZ-64" style="edgeStyle=orthogonalEdgeStyle;rounded=1;orthogonalLoop=1;jettySize=auto;html=1;entryX=0.5;entryY=0;entryDx=0;entryDy=0;strokeColor=#666666;" parent="1" source="D-mSAHQnKh3Qnr3-uecS-12" target="-tr_Jl8yfyVWpY2dG3ru-175" edge="1">
          <mxGeometry relative="1" as="geometry" />
        </mxCell>
        <mxCell id="xWwAX8yrmCoNilL9z8sZ-111" value="&lt;font style=&quot;font-size: 12px;&quot;&gt;no&lt;/font&gt;" style="edgeLabel;html=1;align=left;verticalAlign=middle;resizable=0;points=[];fontSize=10;fontColor=#000000;labelPosition=right;verticalLabelPosition=middle;" parent="xWwAX8yrmCoNilL9z8sZ-64" vertex="1" connectable="0">
          <mxGeometry x="-0.2083" y="1" relative="1" as="geometry">
            <mxPoint as="offset" />
          </mxGeometry>
        </mxCell>
        <mxCell id="D-mSAHQnKh3Qnr3-uecS-12" value="&lt;font style=&quot;font-size: 12px;&quot;&gt;&lt;span style=&quot;border-color: var(--border-color);&quot;&gt;&lt;font style=&quot;border-color: var(--border-color); font-size: 12px;&quot;&gt;ca-server-cert&lt;/font&gt;&lt;/span&gt;&lt;span style=&quot;border-color: var(--border-color);&quot;&gt;&lt;font style=&quot;border-color: var(--border-color); font-size: 12px;&quot;&gt;&lt;br style=&quot;border-color: var(--border-color);&quot;&gt;&lt;/font&gt;Secret&amp;nbsp;exists?&lt;/span&gt;&lt;br&gt;&lt;/font&gt;" style="rhombus;whiteSpace=wrap;html=1;labelBackgroundColor=none;fontSize=13;strokeColor=#666666;" parent="1" vertex="1">
          <mxGeometry x="512" y="1730" width="160" height="160" as="geometry" />
        </mxCell>
        <mxCell id="MiMByvfmSS1hJjPA0xld-58" value="" style="edgeStyle=orthogonalEdgeStyle;rounded=1;orthogonalLoop=1;jettySize=auto;html=1;strokeColor=#666666;" edge="1" parent="1" source="D-mSAHQnKh3Qnr3-uecS-13">
          <mxGeometry relative="1" as="geometry">
            <mxPoint x="843" y="2118" as="targetPoint" />
          </mxGeometry>
        </mxCell>
        <mxCell id="MiMByvfmSS1hJjPA0xld-59" value="no" style="edgeLabel;html=1;align=left;verticalAlign=middle;resizable=0;points=[];labelPosition=right;verticalLabelPosition=middle;fontSize=12;" vertex="1" connectable="0" parent="MiMByvfmSS1hJjPA0xld-58">
          <mxGeometry x="-0.186" y="-3" relative="1" as="geometry">
            <mxPoint x="5" y="2" as="offset" />
          </mxGeometry>
        </mxCell>
        <mxCell id="D-mSAHQnKh3Qnr3-uecS-13" value="&lt;font style=&quot;font-size: 12px;&quot;&gt;&lt;span style=&quot;border-color: var(--border-color);&quot;&gt;&lt;span style=&quot;border-color: var(--border-color);&quot;&gt;&lt;font style=&quot;border-color: var(--border-color); font-size: 12px;&quot;&gt;&lt;font style=&quot;border-color: var(--border-color); font-size: 12px;&quot;&gt;webhook-server-cert&lt;/font&gt;&amp;nbsp;&lt;/font&gt;&lt;/span&gt;&lt;span style=&quot;border-color: var(--border-color);&quot;&gt;Secret&amp;nbsp;exists?&lt;/span&gt;&lt;/span&gt;&lt;br&gt;&lt;/font&gt;" style="rhombus;whiteSpace=wrap;html=1;labelBackgroundColor=none;fontSize=13;strokeColor=#666666;" parent="1" vertex="1">
          <mxGeometry x="763" y="1730" width="160" height="160" as="geometry" />
        </mxCell>
        <mxCell id="xWwAX8yrmCoNilL9z8sZ-69" style="edgeStyle=orthogonalEdgeStyle;rounded=1;orthogonalLoop=1;jettySize=auto;html=1;exitX=0.5;exitY=1;exitDx=0;exitDy=0;entryX=0.886;entryY=0;entryDx=0;entryDy=0;strokeColor=#666666;entryPerimeter=0;" parent="1" source="D-mSAHQnKh3Qnr3-uecS-14" target="MiMByvfmSS1hJjPA0xld-47" edge="1">
          <mxGeometry relative="1" as="geometry">
            <mxPoint x="1596" y="1978.5" as="targetPoint" />
          </mxGeometry>
        </mxCell>
        <mxCell id="xWwAX8yrmCoNilL9z8sZ-115" value="&lt;font style=&quot;font-size: 12px;&quot;&gt;yes&lt;/font&gt;" style="edgeLabel;html=1;align=left;verticalAlign=middle;resizable=0;points=[];fontSize=12;fontColor=#000000;labelPosition=right;verticalLabelPosition=middle;" parent="xWwAX8yrmCoNilL9z8sZ-69" vertex="1" connectable="0">
          <mxGeometry x="-0.2539" y="-1" relative="1" as="geometry">
            <mxPoint y="12" as="offset" />
          </mxGeometry>
        </mxCell>
        <mxCell id="D-mSAHQnKh3Qnr3-uecS-14" value="&lt;font style=&quot;font-size: 12px;&quot;&gt;&lt;span style=&quot;border-color: var(--border-color);&quot;&gt;&lt;font style=&quot;border-color: var(--border-color); font-size: 12px;&quot;&gt;ca-server-cert&lt;/font&gt;&lt;span style=&quot;border-color: var(--border-color); background-color: initial;&quot;&gt;&lt;font style=&quot;border-color: var(--border-color); font-size: 12px;&quot;&gt;&amp;nbsp;&lt;br&gt;&lt;/font&gt;expires?&lt;/span&gt;&lt;/span&gt;&lt;br&gt;&lt;/font&gt;" style="rhombus;whiteSpace=wrap;html=1;labelBackgroundColor=none;fontSize=13;strokeColor=#666666;" parent="1" vertex="1">
          <mxGeometry x="1516" y="1722" width="160" height="160" as="geometry" />
        </mxCell>
        <mxCell id="MiMByvfmSS1hJjPA0xld-9" value="" style="edgeStyle=orthogonalEdgeStyle;rounded=1;orthogonalLoop=1;jettySize=auto;html=1;strokeColor=#666666;" edge="1" parent="1" source="D-mSAHQnKh3Qnr3-uecS-16" target="MiMByvfmSS1hJjPA0xld-8">
          <mxGeometry relative="1" as="geometry" />
        </mxCell>
        <mxCell id="MiMByvfmSS1hJjPA0xld-10" value="&lt;font style=&quot;font-size: 12px;&quot;&gt;no&lt;/font&gt;" style="edgeLabel;html=1;align=center;verticalAlign=bottom;resizable=0;points=[];" vertex="1" connectable="0" parent="MiMByvfmSS1hJjPA0xld-9">
          <mxGeometry x="-0.0976" y="2" relative="1" as="geometry">
            <mxPoint as="offset" />
          </mxGeometry>
        </mxCell>
        <mxCell id="MiMByvfmSS1hJjPA0xld-56" value="" style="edgeStyle=orthogonalEdgeStyle;rounded=1;orthogonalLoop=1;jettySize=auto;html=1;strokeColor=#666666;" edge="1" parent="1" source="D-mSAHQnKh3Qnr3-uecS-16">
          <mxGeometry relative="1" as="geometry">
            <mxPoint x="1846" y="2119" as="targetPoint" />
          </mxGeometry>
        </mxCell>
        <mxCell id="MiMByvfmSS1hJjPA0xld-60" value="yes" style="edgeLabel;html=1;align=left;verticalAlign=middle;resizable=0;points=[];labelPosition=right;verticalLabelPosition=middle;fontSize=12;" vertex="1" connectable="0" parent="MiMByvfmSS1hJjPA0xld-56">
          <mxGeometry x="0.0063" relative="1" as="geometry">
            <mxPoint y="1" as="offset" />
          </mxGeometry>
        </mxCell>
        <mxCell id="D-mSAHQnKh3Qnr3-uecS-16" value="&lt;font style=&quot;font-size: 12px;&quot;&gt;&lt;span style=&quot;border-color: var(--border-color);&quot;&gt;&amp;nbsp; &amp;nbsp; &lt;span style=&quot;border-color: var(--border-color);&quot;&gt;&lt;font style=&quot;border-color: var(--border-color); font-size: 12px;&quot;&gt;webhook-server-cert&lt;/font&gt;&amp;nbsp;&lt;/span&gt;&lt;span style=&quot;border-color: var(--border-color); background-color: initial;&quot;&gt;expires?&lt;/span&gt;&lt;/span&gt;&lt;br&gt;&lt;/font&gt;" style="rhombus;whiteSpace=wrap;html=1;labelBackgroundColor=none;fontSize=13;strokeColor=#666666;" parent="1" vertex="1">
          <mxGeometry x="1766" y="1722" width="160" height="160" as="geometry" />
        </mxCell>
        <mxCell id="xWwAX8yrmCoNilL9z8sZ-60" style="edgeStyle=orthogonalEdgeStyle;rounded=1;orthogonalLoop=1;jettySize=auto;html=1;entryX=0.5;entryY=0;entryDx=0;entryDy=0;strokeColor=#666666;" parent="1" source="xWwAX8yrmCoNilL9z8sZ-35" edge="1">
          <mxGeometry relative="1" as="geometry">
            <mxPoint x="1093" y="2310" as="targetPoint" />
          </mxGeometry>
        </mxCell>
        <mxCell id="Pu00R0AXdo9YrrrDTK1f-5" value="" style="edgeStyle=orthogonalEdgeStyle;rounded=1;orthogonalLoop=1;jettySize=auto;html=1;strokeColor=#666666;" parent="1" target="xWwAX8yrmCoNilL9z8sZ-37" edge="1">
          <mxGeometry relative="1" as="geometry">
            <mxPoint x="1094" y="2044" as="sourcePoint" />
          </mxGeometry>
        </mxCell>
        <mxCell id="Pu00R0AXdo9YrrrDTK1f-6" value="" style="edgeStyle=orthogonalEdgeStyle;rounded=1;orthogonalLoop=1;jettySize=auto;html=1;strokeColor=#666666;" parent="1" target="xWwAX8yrmCoNilL9z8sZ-35" edge="1">
          <mxGeometry relative="1" as="geometry">
            <mxPoint x="1094" y="2156" as="sourcePoint" />
          </mxGeometry>
        </mxCell>
        <mxCell id="xWwAX8yrmCoNilL9z8sZ-72" value="" style="endArrow=classic;html=1;rounded=1;strokeColor=#666666;" parent="1" edge="1">
          <mxGeometry width="50" height="50" relative="1" as="geometry">
            <mxPoint x="672" y="1809.5" as="sourcePoint" />
            <mxPoint x="762" y="1809.5" as="targetPoint" />
          </mxGeometry>
        </mxCell>
        <mxCell id="xWwAX8yrmCoNilL9z8sZ-106" value="&lt;font style=&quot;font-size: 12px;&quot;&gt;yes&lt;/font&gt;" style="edgeLabel;html=1;align=center;verticalAlign=bottom;resizable=0;points=[];fontSize=12;fontColor=#000000;" parent="xWwAX8yrmCoNilL9z8sZ-72" vertex="1" connectable="0">
          <mxGeometry x="-0.0667" y="1" relative="1" as="geometry">
            <mxPoint y="1" as="offset" />
          </mxGeometry>
        </mxCell>
        <mxCell id="xWwAX8yrmCoNilL9z8sZ-73" value="" style="endArrow=classic;html=1;rounded=1;strokeColor=#666666;" parent="1" edge="1">
          <mxGeometry width="50" height="50" relative="1" as="geometry">
            <mxPoint x="923" y="1809.5" as="sourcePoint" />
            <mxPoint x="1013" y="1809.5" as="targetPoint" />
          </mxGeometry>
        </mxCell>
        <mxCell id="xWwAX8yrmCoNilL9z8sZ-117" value="&lt;font style=&quot;font-size: 12px;&quot;&gt;yes&lt;/font&gt;" style="edgeLabel;html=1;align=center;verticalAlign=bottom;resizable=0;points=[];fontSize=12;fontColor=#000000;" parent="xWwAX8yrmCoNilL9z8sZ-73" vertex="1" connectable="0">
          <mxGeometry y="3" relative="1" as="geometry">
            <mxPoint y="1" as="offset" />
          </mxGeometry>
        </mxCell>
        <mxCell id="xWwAX8yrmCoNilL9z8sZ-74" value="" style="endArrow=classic;html=1;rounded=1;strokeColor=#666666;" parent="1" edge="1">
          <mxGeometry width="50" height="50" relative="1" as="geometry">
            <mxPoint x="1174" y="1806.5" as="sourcePoint" />
            <mxPoint x="1264" y="1806.5" as="targetPoint" />
          </mxGeometry>
        </mxCell>
        <mxCell id="xWwAX8yrmCoNilL9z8sZ-108" value="&lt;font style=&quot;font-size: 12px;&quot;&gt;no&lt;/font&gt;" style="edgeLabel;html=1;align=center;verticalAlign=bottom;resizable=0;points=[];fontSize=12;fontColor=#000000;" parent="xWwAX8yrmCoNilL9z8sZ-74" vertex="1" connectable="0">
          <mxGeometry x="-0.1556" y="3" relative="1" as="geometry">
            <mxPoint y="1" as="offset" />
          </mxGeometry>
        </mxCell>
        <mxCell id="xWwAX8yrmCoNilL9z8sZ-75" value="" style="endArrow=classic;html=1;rounded=1;strokeColor=#666666;" parent="1" edge="1">
          <mxGeometry width="50" height="50" relative="1" as="geometry">
            <mxPoint x="1425" y="1804.5" as="sourcePoint" />
            <mxPoint x="1515" y="1804.5" as="targetPoint" />
          </mxGeometry>
        </mxCell>
        <mxCell id="xWwAX8yrmCoNilL9z8sZ-109" value="&lt;font style=&quot;font-size: 12px;&quot;&gt;yes&lt;/font&gt;" style="edgeLabel;html=1;align=center;verticalAlign=bottom;resizable=0;points=[];fontSize=12;fontColor=#000000;" parent="xWwAX8yrmCoNilL9z8sZ-75" vertex="1" connectable="0">
          <mxGeometry x="-0.1333" y="3" relative="1" as="geometry">
            <mxPoint y="1" as="offset" />
          </mxGeometry>
        </mxCell>
        <mxCell id="xWwAX8yrmCoNilL9z8sZ-76" value="" style="endArrow=classic;html=1;rounded=1;strokeColor=#666666;" parent="1" edge="1">
          <mxGeometry width="50" height="50" relative="1" as="geometry">
            <mxPoint x="1676" y="1801.5" as="sourcePoint" />
            <mxPoint x="1766" y="1801.5" as="targetPoint" />
          </mxGeometry>
        </mxCell>
        <mxCell id="xWwAX8yrmCoNilL9z8sZ-110" value="&lt;font style=&quot;font-size: 12px;&quot;&gt;no&lt;/font&gt;" style="edgeLabel;html=1;align=center;verticalAlign=bottom;resizable=0;points=[];fontSize=12;fontColor=#000000;" parent="xWwAX8yrmCoNilL9z8sZ-76" vertex="1" connectable="0">
          <mxGeometry x="-0.1556" y="2" relative="1" as="geometry">
            <mxPoint y="1" as="offset" />
          </mxGeometry>
        </mxCell>
        <mxCell id="xWwAX8yrmCoNilL9z8sZ-99" value="&lt;b style=&quot;border-color: var(--border-color); font-family: Helvetica; font-style: normal; font-variant-ligatures: normal; font-variant-caps: normal; letter-spacing: normal; orphans: 2; text-align: center; text-indent: 0px; text-transform: none; widows: 2; word-spacing: 0px; -webkit-text-stroke-width: 0px; background-color: rgb(255, 255, 255); text-decoration-thickness: initial; text-decoration-style: initial; text-decoration-color: initial; font-size: 15px;&quot;&gt;&lt;font style=&quot;font-size: 15px;&quot; color=&quot;#000000&quot;&gt;btpOperator reconciliation&lt;/font&gt;&lt;/b&gt;" style="text;whiteSpace=wrap;html=1;fontColor=#EA6B66;fontSize=15;" parent="1" vertex="1">
          <mxGeometry x="1148.5600000000002" y="1636" width="196.87" height="25" as="geometry" />
        </mxCell>
        <mxCell id="rAdUN6T4OuiU2hSwLSGW-9" value="&lt;font style=&quot;font-size: 13px;&quot;&gt;&lt;b style=&quot;&quot;&gt;&lt;span style=&quot;white-space: pre;&quot;&gt;&#x9;&lt;/span&gt;&lt;font style=&quot;font-size: 13px;&quot;&gt;Reference key:&lt;br&gt;&lt;/font&gt;&lt;/b&gt;&lt;font style=&quot;font-size: 13px;&quot;&gt;&lt;br&gt;&lt;/font&gt;&lt;/font&gt;&lt;blockquote style=&quot;margin: 0px 0px 0px 40px; border: none; padding: 0px; font-size: 13px;&quot;&gt;&lt;font style=&quot;font-size: 13px;&quot;&gt;&lt;span style=&quot;border-color: var(--border-color); color: rgb(0, 0, 0);&quot;&gt;&lt;font style=&quot;border-color: var(--border-color); font-size: 13px;&quot;&gt;ca-server-cert&lt;/font&gt;&amp;nbsp;=&amp;nbsp;Self-signed root certificate authority&lt;br&gt;&lt;/span&gt;&lt;span style=&quot;border-color: var(--border-color); color: rgb(0, 0, 0);&quot;&gt;&lt;span style=&quot;border-color: var(--border-color);&quot;&gt;&lt;font style=&quot;border-color: var(--border-color); font-size: 13px;&quot;&gt;webhook-server-cert&amp;nbsp;&lt;/font&gt;&lt;font style=&quot;border-color: var(--border-color); font-size: 13px;&quot;&gt;=&lt;/font&gt;&lt;font style=&quot;border-color: var(--border-color); font-size: 13px;&quot;&gt;&amp;nbsp;&lt;/font&gt;&lt;font style=&quot;border-color: var(--border-color); font-size: 13px;&quot;&gt;Signed certificate by&amp;nbsp;&lt;/font&gt;&lt;font style=&quot;border-color: var(--border-color); font-size: 13px;&quot;&gt;ca-server-cert&lt;/font&gt;&lt;/span&gt;&lt;/span&gt;&lt;/font&gt;&lt;/blockquote&gt;" style="rounded=1;whiteSpace=wrap;html=1;fontSize=14;fillColor=#f0f6ff;fontColor=#333333;strokeColor=#FFFFFF;align=left;" parent="1" vertex="1">
          <mxGeometry x="512" y="2423" width="453" height="92" as="geometry" />
        </mxCell>
        <mxCell id="DB40sqPM20ld0QPVg-On-1" value="&lt;font color=&quot;#ffffff&quot;&gt;1&lt;/font&gt;" style="ellipse;whiteSpace=wrap;html=1;aspect=fixed;fillColor=#0a6ec7;strokeColor=#0a6ec7;" parent="1" vertex="1">
          <mxGeometry x="1028" y="1587" width="24" height="24" as="geometry" />
        </mxCell>
        <mxCell id="MiMByvfmSS1hJjPA0xld-1" value="&lt;font color=&quot;#ffffff&quot;&gt;2&lt;/font&gt;" style="ellipse;whiteSpace=wrap;html=1;aspect=fixed;fillColor=#0a6ec7;strokeColor=#0a6ec7;" vertex="1" parent="1">
          <mxGeometry x="500" y="1737" width="24" height="24" as="geometry" />
        </mxCell>
        <mxCell id="MiMByvfmSS1hJjPA0xld-2" value="&lt;font color=&quot;#ffffff&quot;&gt;a&lt;/font&gt;" style="ellipse;whiteSpace=wrap;html=1;aspect=fixed;fillColor=#0a6ec7;strokeColor=#0a6ec7;" vertex="1" parent="1">
          <mxGeometry x="500" y="1964" width="24" height="24" as="geometry" />
        </mxCell>
        <mxCell id="MiMByvfmSS1hJjPA0xld-3" value="&lt;font color=&quot;#ffffff&quot;&gt;3&lt;/font&gt;" style="ellipse;whiteSpace=wrap;html=1;aspect=fixed;fillColor=#0a6ec7;strokeColor=#0a6ec7;" vertex="1" parent="1">
          <mxGeometry x="774.5" y="1737" width="24" height="24" as="geometry" />
        </mxCell>
        <mxCell id="MiMByvfmSS1hJjPA0xld-4" value="&lt;font color=&quot;#ffffff&quot;&gt;4&lt;/font&gt;" style="ellipse;whiteSpace=wrap;html=1;aspect=fixed;fillColor=#0a6ec7;strokeColor=#0a6ec7;" vertex="1" parent="1">
          <mxGeometry x="1020.38" y="1737" width="24" height="24" as="geometry" />
        </mxCell>
        <mxCell id="MiMByvfmSS1hJjPA0xld-5" value="&lt;font color=&quot;#ffffff&quot;&gt;5&lt;/font&gt;" style="ellipse;whiteSpace=wrap;html=1;aspect=fixed;fillColor=#0a6ec7;strokeColor=#0a6ec7;" vertex="1" parent="1">
          <mxGeometry x="1271" y="1737" width="24" height="24" as="geometry" />
        </mxCell>
        <mxCell id="MiMByvfmSS1hJjPA0xld-6" value="&lt;font color=&quot;#ffffff&quot;&gt;6&lt;/font&gt;" style="ellipse;whiteSpace=wrap;html=1;aspect=fixed;fillColor=#0a6ec7;strokeColor=#0a6ec7;" vertex="1" parent="1">
          <mxGeometry x="1498.5" y="1737" width="24" height="24" as="geometry" />
        </mxCell>
        <mxCell id="MiMByvfmSS1hJjPA0xld-7" value="&lt;font color=&quot;#ffffff&quot;&gt;7&lt;/font&gt;" style="ellipse;whiteSpace=wrap;html=1;aspect=fixed;fillColor=#0a6ec7;strokeColor=#0a6ec7;" vertex="1" parent="1">
          <mxGeometry x="1766" y="1747" width="24" height="24" as="geometry" />
        </mxCell>
        <mxCell id="MiMByvfmSS1hJjPA0xld-8" value="&lt;span style=&quot;border-color: var(--border-color); font-size: 12px;&quot;&gt;&lt;font style=&quot;font-size: 12px;&quot;&gt;certificates&#39;&lt;/font&gt;&lt;/span&gt;&lt;font style=&quot;font-size: 12px;&quot;&gt;&lt;font style=&quot;font-size: 12px;&quot;&gt;&amp;nbsp;&lt;br&gt;reconciliation&lt;br&gt;complete&lt;/font&gt;&lt;br&gt;&lt;/font&gt;" style="ellipse;whiteSpace=wrap;html=1;aspect=fixed;labelBackgroundColor=none;fontSize=10;fillColor=#FFFFFF;strokeColor=#666666;" vertex="1" parent="1">
          <mxGeometry x="2008" y="1737" width="130" height="130" as="geometry" />
        </mxCell>
        <mxCell id="MiMByvfmSS1hJjPA0xld-11" value="&lt;font color=&quot;#ffffff&quot;&gt;b&lt;/font&gt;" style="ellipse;whiteSpace=wrap;html=1;aspect=fixed;fillColor=#0a6ec7;strokeColor=#0a6ec7;" vertex="1" parent="1">
          <mxGeometry x="500" y="2090" width="24" height="24" as="geometry" />
        </mxCell>
        <mxCell id="MiMByvfmSS1hJjPA0xld-12" value="&lt;font color=&quot;#ffffff&quot;&gt;c&lt;/font&gt;" style="ellipse;whiteSpace=wrap;html=1;aspect=fixed;fillColor=#0a6ec7;strokeColor=#0a6ec7;" vertex="1" parent="1">
          <mxGeometry x="500" y="2214" width="24" height="24" as="geometry" />
        </mxCell>
        <mxCell id="MiMByvfmSS1hJjPA0xld-16" value="&lt;font color=&quot;#ffffff&quot;&gt;8&lt;/font&gt;" style="ellipse;whiteSpace=wrap;html=1;aspect=fixed;fillColor=#0a6ec7;strokeColor=#0a6ec7;" vertex="1" parent="1">
          <mxGeometry x="1984" y="1747" width="24" height="24" as="geometry" />
        </mxCell>
        <mxCell id="MiMByvfmSS1hJjPA0xld-19" value="" style="edgeStyle=orthogonalEdgeStyle;rounded=1;orthogonalLoop=1;jettySize=auto;html=1;strokeColor=#666666;" edge="1" target="MiMByvfmSS1hJjPA0xld-18" parent="1">
          <mxGeometry relative="1" as="geometry">
            <mxPoint x="843" y="2048" as="sourcePoint" />
          </mxGeometry>
        </mxCell>
        <mxCell id="MiMByvfmSS1hJjPA0xld-20" style="edgeStyle=orthogonalEdgeStyle;rounded=1;orthogonalLoop=1;jettySize=auto;html=1;entryX=0.5;entryY=0;entryDx=0;entryDy=0;strokeColor=#666666;" edge="1" target="MiMByvfmSS1hJjPA0xld-21" parent="1">
          <mxGeometry relative="1" as="geometry">
            <mxPoint x="843" y="2166" as="sourcePoint" />
          </mxGeometry>
        </mxCell>
        <mxCell id="MiMByvfmSS1hJjPA0xld-43" value="" style="edgeStyle=orthogonalEdgeStyle;rounded=1;orthogonalLoop=1;jettySize=auto;html=1;strokeColor=#666666;" edge="1" source="MiMByvfmSS1hJjPA0xld-42" parent="1">
          <mxGeometry relative="1" as="geometry">
            <mxPoint x="1847" y="2091" as="targetPoint" />
          </mxGeometry>
        </mxCell>
        <mxCell id="MiMByvfmSS1hJjPA0xld-44" style="edgeStyle=orthogonalEdgeStyle;rounded=1;orthogonalLoop=1;jettySize=auto;html=1;entryX=0.5;entryY=0;entryDx=0;entryDy=0;strokeColor=#666666;" edge="1" source="MiMByvfmSS1hJjPA0xld-41" parent="1">
          <mxGeometry relative="1" as="geometry">
            <mxPoint x="1847" y="2207.25" as="targetPoint" />
          </mxGeometry>
        </mxCell>
        <mxCell id="MiMByvfmSS1hJjPA0xld-51" value="" style="edgeStyle=orthogonalEdgeStyle;rounded=1;orthogonalLoop=1;jettySize=auto;html=1;entryX=0.578;entryY=-0.015;entryDx=0;entryDy=0;entryPerimeter=0;strokeColor=#666666;" edge="1" parent="1" source="MiMByvfmSS1hJjPA0xld-47" target="-tr_Jl8yfyVWpY2dG3ru-174">
          <mxGeometry relative="1" as="geometry" />
        </mxCell>
        <mxCell id="MiMByvfmSS1hJjPA0xld-47" value="&lt;font style=&quot;font-size: 12px;&quot;&gt;create&amp;nbsp;&lt;span style=&quot;border-color: var(--border-color);&quot;&gt;ca-server-cert&lt;/span&gt;&lt;/font&gt;" style="rounded=1;whiteSpace=wrap;html=1;fontSize=14;strokeColor=#666666;" vertex="1" parent="1">
          <mxGeometry x="1014" y="1985" width="656" height="71" as="geometry" />
        </mxCell>
      </root>
    </mxGraphModel>
  </diagram>
</mxfile>
